<svg width="20" height="20" viewBox="0 0 20 20" fill="none" xmlns="http://www.w3.org/2000/svg">
<path d="M3.33334 20C2.41667 20 1.63167 19.6733 0.978336 19.02C0.325003 18.3667 -0.00110828 17.5822 2.82966e-06 16.6667V3.33334C2.82966e-06 2.41667 0.326669 1.63167 0.980002 0.978336C1.63334 0.325003 2.41778 -0.00110828 3.33334 2.82966e-06H16.6667C17.5833 2.82966e-06 18.3683 0.326669 19.0217 0.980002C19.675 1.63334 20.0011 2.41778 20 3.33334V16.6667C20 17.5833 19.6733 18.3683 19.02 19.0217C18.3667 19.675 17.5822 20.0011 16.6667 20H3.33334Z" fill="#643FDB"/>
</svg>
